<svg width="100" height="22" viewBox="0 0 100 22" fill="none" xmlns="http://www.w3.org/2000/svg">
<path fill-rule="evenodd" clip-rule="evenodd" d="M0.0366211 18.1251H9.53608C10.1196 18.1251 10.5837 18.1587 10.9526 18.2274C11.3081 18.2708 11.6214 18.3549 11.8628 18.4708L13.2264 13.2283L12.379 13.0305C11.0343 15.9386 9.36103 16.9625 6.61238 16.9625C6.23087 16.9625 5.3718 16.9197 4.85233 16.7575L4.80269 16.7421V1.73792L6.20664 1.53628V0.441162H0.0369772V1.53628L1.44066 1.73792L1.4403 16.7389L0.0366211 16.9405V18.1251Z" fill="#FFE500"/>
<path fill-rule="evenodd" clip-rule="evenodd" d="M13.731 7.78119C14.748 7.88986 14.9563 8.15599 14.9563 9.2818V15.1438C14.9563 17.4352 16.8189 18.4787 18.5496 18.4787C20.4258 18.4787 21.3091 17.9752 22.283 16.7335L22.3719 16.6203L22.4078 16.7589C22.4554 16.9396 22.4904 17.1252 22.5236 17.3048C22.6161 17.7993 22.704 18.098 23.0398 18.468L26.117 17.4732V16.9054C25.1277 16.8049 24.8926 16.7137 24.8926 15.5471V7.76851C24.8926 7.22427 24.7803 6.43493 24.4671 5.96069L20.8692 7.00037V7.78119C21.8863 7.88951 22.0945 8.15599 22.0945 9.2818V14.9136C22.0945 15.4838 21.231 16.9788 19.8198 16.9788C18.8575 16.9788 17.7525 16.7442 17.7525 14.9168V7.76851C17.7525 7.21744 17.5218 6.50484 17.187 6.01623L13.731 7.00037V7.78119Z" fill="#FFE500"/>
<path fill-rule="evenodd" clip-rule="evenodd" d="M35.108 17.3561V18.1252L39.353 18.1248V17.3557L38.6241 17.2053V10.8311C38.6241 10.6352 38.6196 10.4165 38.6107 10.1802C38.5739 9.17313 39.1125 8.24176 39.9832 7.80726C40.2803 7.65841 40.5676 7.583 40.8351 7.583C42.1735 7.583 43.073 8.47285 43.073 9.7972V17.2053L42.3387 17.3556V18.1248L46.7651 18.1245V17.3695L45.8566 17.2067V10.4278C45.8566 8.33154 45.1017 5.83276 41.5029 5.83276C40.3144 5.83276 39.2121 6.28607 38.3988 7.66213L38.3189 7.79759L38.2704 7.64847C37.8414 6.34054 36.5846 5.83276 34.9913 5.83276C33.73 5.83276 32.6735 6.22326 31.6663 7.71634L31.5667 7.8628L31.537 7.68928C31.4087 6.95645 30.985 6.48017 30.371 5.84474L27.3862 6.99557V7.774C28.3431 7.79768 28.7893 8.31034 28.7893 9.3816V17.2067L27.879 17.3695V18.1248H32.3189V17.3552L31.5864 17.2053V10.1751C31.5864 8.95153 32.6807 7.58336 34.1439 7.58336C35.2229 7.58336 35.8414 8.41794 35.8414 9.87296V17.2056L35.108 17.3561Z" fill="#FFE500"/>
<path fill-rule="evenodd" clip-rule="evenodd" d="M48.7515 18.1242H53.4095V17.3686L52.5001 17.2054V8.02332C52.5001 7.12185 52.2613 6.41953 52.0495 5.9751L48.2568 7.00111V7.77502C49.1249 7.78708 49.659 8.03086 49.659 9.13059V17.2054L48.7515 17.3684V18.1242Z" fill="#FFE500"/>
<path fill-rule="evenodd" clip-rule="evenodd" d="M62.8045 18.1252H67.0549V17.3571L66.3242 17.2053V9.9237C66.3242 7.43859 64.7578 5.83276 62.3323 5.83276C61.1483 5.83276 60.0729 6.22193 59.1357 7.59046L59.0387 7.73106L59.0064 7.56411C58.8664 6.83953 58.5001 6.24455 57.9912 5.84137L54.6626 6.99761V7.774C56.2075 7.79866 56.3215 8.64016 56.3215 10.0126V17.2067L55.4122 17.3695V18.1248H59.8628V17.3552L59.1321 17.2053V9.77351C59.1321 8.47117 60.1285 7.48871 61.4499 7.48871C62.7748 7.48871 63.5352 8.44988 63.5352 10.1253V17.2053L62.8045 17.355V18.1252Z" fill="#FFE500"/>
<path fill-rule="evenodd" clip-rule="evenodd" d="M73.1076 17.1156C71.9918 17.1156 71.3518 16.2591 71.3518 14.7656C71.3518 13.0161 72.6453 12.1936 75.0906 11.5393L75.1803 11.5153L75.1794 14.5076C75.1794 15.6985 74.2495 17.1156 73.1076 17.1156ZM75.2629 16.3266L75.3006 16.487C75.6121 17.795 76.2575 18.4578 77.218 18.4578C78.5421 18.4578 79.4721 17.582 79.7701 17.0028L79.42 16.5762C79.1758 16.8684 78.964 16.9843 78.6848 16.9843C78.0843 16.9843 78.0008 16.5021 78.0008 15.9809V9.75158C78.0008 7.39057 75.9909 5.84135 73.6238 5.92908C70.7549 6.03553 69.2046 7.36041 69.2046 8.70702C69.2046 9.55917 69.9057 10.2526 70.7683 10.2526C71.6022 10.2526 72.5358 9.59173 72.5358 8.70702C72.5358 8.56952 72.5188 8.42927 72.4846 8.29071L72.4757 8.23349C72.4101 7.78631 72.3276 7.37842 72.6301 7.03272C72.8213 6.81431 73.1328 6.70804 73.5816 6.70804C75.0053 6.70804 75.201 7.86641 75.201 9.11828V10.2526L75.157 10.2704C74.7665 10.4308 74.3563 10.5848 73.9227 10.7481C71.3958 11.6973 68.5322 12.7729 68.5322 15.552C68.5322 17.0727 70.0134 18.4578 71.6391 18.4578C73.1786 18.4578 74.5224 17.4568 75.1723 16.4651L75.2629 16.3266Z" fill="#FFE500"/>
<path fill-rule="evenodd" clip-rule="evenodd" d="M81.0989 18.1258H85.8943V17.3787L84.8171 17.2066V10.7268C84.8171 10.6143 84.8198 10.4995 84.8251 10.387C84.8189 9.7189 84.7883 9.20394 84.7273 8.75259L84.6914 8.58191C84.6187 8.21598 84.5451 7.89813 84.4679 7.60903C84.2165 6.67598 83.9436 6.06929 83.6743 5.84131L80.3467 6.99826V7.77394C81.8916 7.7986 82.0047 8.64019 82.0047 10.0125V17.2053L81.0989 17.368V18.1258Z" fill="#FFE500"/>
<path fill-rule="evenodd" clip-rule="evenodd" d="M50.9921 0.0749512C49.9805 0.0749512 49.1582 0.887974 49.1582 1.8872C49.1582 2.88643 49.9805 3.69954 50.9921 3.69954C52.0029 3.69954 52.826 2.88643 52.826 1.8872C52.826 0.888329 52.0029 0.0752173 50.9921 0.0749512Z" fill="#FFE500"/>
<path fill-rule="evenodd" clip-rule="evenodd" d="M98.9292 10.3798C99.404 9.42209 99.9633 8.09437 99.9633 7.23158C99.9633 6.29986 99.3861 5.72103 98.457 5.72103C97.4085 5.72103 96.86 6.38493 96.86 7.04085C96.86 7.79329 97.2685 8.09055 97.6634 8.37797C97.8627 8.52301 98.0683 8.6732 98.2137 8.87723C98.5135 9.29763 98.378 10.0386 98.2137 10.4344L96.624 14.7328L96.5557 14.5613C96.3636 14.0837 94.6643 9.83707 94.0369 7.88244C93.5333 6.31396 92.913 5.8006 92.7927 5.71313L89.5728 6.28372L89.7209 7.05451C89.9309 7.10535 90.7514 7.34637 91.0387 8.05995C91.3169 8.75091 94.4031 16.7515 95.0297 18.3982L95.0387 18.4239L94.8044 18.9869C94.3582 20.0644 94.1105 20.4581 93.3142 20.3442C92.9893 20.2966 92.799 20.0023 92.5961 19.6909C92.2882 19.216 91.9381 18.678 91.0243 18.678C90.7254 18.678 90.2846 18.8351 89.9731 19.1862C89.7909 19.3913 89.588 19.7427 89.6553 20.2516C89.7963 21.3119 90.6571 21.9449 91.9579 21.9449C93.5046 21.9449 94.5737 21.1813 95.2272 19.6104L96.7909 15.7309L98.9292 10.3798Z" fill="#FFE500"/>
<path fill-rule="evenodd" clip-rule="evenodd" d="M87.081 5.96167C86.0693 5.96167 85.2471 6.7747 85.2471 7.77392C85.2471 8.77315 86.0693 9.58626 87.081 9.58626C88.0917 9.58626 88.9149 8.77315 88.9149 7.77392C88.9149 6.7747 88.0917 5.96167 87.081 5.96167Z" fill="#FFE500"/>
</svg>
