<?xml version="1.0" standalone="no"?>
<!DOCTYPE svg PUBLIC "-//W3C//DTD SVG 20010904//EN"
 "http://www.w3.org/TR/2001/REC-SVG-20010904/DTD/svg10.dtd">
<svg version="1.0" xmlns="http://www.w3.org/2000/svg"
 width="512.000000pt" height="512.000000pt" viewBox="0 0 512.000000 512.000000"
 preserveAspectRatio="xMidYMid meet">
<metadata>
Created by potrace 1.14, written by Peter Selinger 2001-2017
</metadata>
<g transform="translate(0.000000,512.000000) scale(0.100000,-0.100000)"
fill="#000000" stroke="none">
<path d="M0 2560 l0 -2560 2560 0 2560 0 0 2560 0 2560 -2560 0 -2560 0 0
-2560z m2765 2000 c244 -27 469 -91 680 -194 224 -110 387 -229 565 -412 296
-305 473 -658 547 -1089 23 -139 23 -481 0 -620 -78 -454 -271 -822 -593
-1135 -172 -167 -305 -261 -519 -366 -906 -446 -2005 -141 -2568 711 -207 315
-327 717 -327 1100 0 455 162 912 447 1265 72 89 254 267 338 331 407 311 939
463 1430 409z"/>
<path d="M1417 3673 c-126 -129 -205 -239 -284 -398 -230 -459 -230 -981 0
-1440 79 -159 158 -269 284 -397 l76 -78 65 0 64 0 -47 52 c-120 134 -241 347
-303 534 -124 374 -124 845 0 1218 63 189 181 398 298 529 l52 57 -65 0 -64 0
-76 -77z"/>
<path d="M3560 3693 c117 -131 235 -340 298 -529 124 -373 124 -844 0 -1218
-62 -187 -183 -400 -303 -534 l-47 -52 64 0 65 0 76 78 c126 128 205 238 284
397 281 561 213 1229 -176 1720 -18 22 -66 75 -108 118 l-76 77 -64 0 -65 0
52 -57z"/>
<path d="M2030 3366 c0 -60 -7 -54 93 -71 l37 -6 0 -753 0 -753 -62 -9 -63 -9
-3 -62 -3 -63 498 0 c391 0 510 -3 552 -14 38 -10 54 -10 57 -2 3 9 94 384
119 492 4 18 -1 23 -34 31 l-38 10 -23 -46 c-99 -205 -230 -315 -410 -342 -79
-12 -208 -7 -253 10 l-27 11 0 749 0 749 70 12 70 12 0 54 0 54 -290 0 -290 0
0 -54z"/>
</g>
</svg>
